<svg xmlns="http://www.w3.org/2000/svg" viewBox="-10 -10 200 200" width="100%" height="100%" class="padded-svg">
  <circle cx="90" cy="10" r="10" fill="#ffeb3b"></circle>
  <circle cx="110.70552360820166" cy="12.725933896874537" r="10" fill="#d2dc40"></circle>
  <circle cx="130" cy="20.7179676972449" r="10" fill="#a5cd45"></circle>
  <circle cx="146.5685424949238" cy="33.4314575050762" r="10" fill="#78be4a"></circle>
  <circle cx="159.28203230275508" cy="50" r="10" fill="#4baf4f"></circle>
  <circle cx="167.27406610312545" cy="69.29447639179833" r="10" fill="#41a978"></circle>
  <circle cx="170" cy="90" r="10" fill="#36a3a1"></circle>
  <circle cx="167.27406610312545" cy="110.70552360820166" r="10" fill="#2c9cca"></circle>
  <circle cx="159.2820323027551" cy="130" r="10" fill="#2196f3"></circle>
  <circle cx="146.5685424949238" cy="146.5685424949238" r="10" fill="#2985e4"></circle>
  <circle cx="130.00000000000003" cy="159.28203230275508" r="10" fill="#3074d4"></circle>
  <circle cx="110.70552360820167" cy="167.27406610312545" r="10" fill="#3862c5"></circle>
  <circle cx="90" cy="170" r="10" fill="#3f51b5"></circle>
  <circle cx="69.29447639179837" cy="167.27406610312548" r="10" fill="#5647b4"></circle>
  <circle cx="50.000000000000014" cy="159.2820323027551" r="10" fill="#6e3cb3"></circle>
  <circle cx="33.43145750507623" cy="146.56854249492383" r="10" fill="#8532b1"></circle>
  <circle cx="20.717967697244916" cy="130.00000000000003" r="10" fill="#9c27b0"></circle>
  <circle cx="12.725933896874551" cy="110.70552360820172" r="10" fill="#b5338d"></circle>
  <circle cx="10" cy="90.00000000000001" r="10" fill="#ce3f69"></circle>
  <circle cx="12.725933896874523" cy="69.29447639179837" r="10" fill="#e64b46"></circle>
  <circle cx="20.717967697244873" cy="50.00000000000005" r="10" fill="#ff5722"></circle>
  <circle cx="33.43145750507618" cy="33.4314575050762" r="10" fill="#ff7c28"></circle>
  <circle cx="49.999999999999964" cy="20.717967697244916" r="10" fill="#ffa12f"></circle>
  <circle cx="69.29447639179827" cy="12.725933896874551" r="10" fill="#ffc635"></circle>
  <text x="47.5" y="109" font-family="tahoma" font-size="50">
    <tspan fill="#ce3f69">I</tspan>
  </text>
  <text x="62.5" y="109" font-family="tahoma" font-size="50">
    <tspan fill="#3f51b5">R</tspan>
  </text>
  <text x="97.5" y="109" font-family="tahoma" font-size="50">
    <tspan fill="#36a3a1">O</tspan>
  </text>
</svg>
