<svg width="400mm" height="400mm">
    <!-- Socle leds-->
    <circle cx="44mm" cy="44mm" r="28mm" fill="transparent" stroke="black" stroke-width="0.2mm"/>
    <circle cx="44mm" cy="44mm" r="40mm" fill="transparent" stroke="black" stroke-width="0.2mm"/>
    <!-- Anneau leds -->
    <circle cx="126mm" cy="44mm" r="40mm" fill="transparent" stroke="black" stroke-width="0.2mm"/>
    <circle cx="126mm" cy="44mm" r="33mm" fill="transparent" stroke="black" stroke-width="0.2mm"/>
    <!-- Epaisseur -->
    <circle cx="208mm" cy="44mm" r="40mm" fill="transparent" stroke="black" stroke-width="0.2mm"/>
    <circle cx="208mm" cy="44mm" r="35mm" fill="transparent" stroke="black" stroke-width="0.2mm"/>
    <!-- Epaisseur -->
    <circle cx="290mm" cy="44mm" r="40mm" fill="transparent" stroke="black" stroke-width="0.2mm"/>
    <circle cx="290mm" cy="44mm" r="35mm" fill="transparent" stroke="black" stroke-width="0.2mm"/>
    <!-- Pannier carte -->
    <rect x="274mm" y="32mm" width="56mm" height="24mm" fill="transparent" stroke="black" stroke-width="0.2mm"/>
    <rect x="300mm" y="28mm" width="25mm" height="32mm" fill="transparent" stroke="black" stroke-width="0.2mm"/>
    <!-- Epaisseur -->
    <circle cx="44mm" cy="126mm" r="40mm" fill="transparent" stroke="black" stroke-width="0.2mm"/>
    <circle cx="44mm" cy="126mm" r="35mm" fill="transparent" stroke="black" stroke-width="0.2mm"/>
    <!-- Epaisseur -->
    <circle cx="126mm" cy="126mm" r="40mm" fill="transparent" stroke="black" stroke-width="0.2mm"/>
    <circle cx="126mm" cy="126mm" r="35mm" fill="transparent" stroke="black" stroke-width="0.2mm"/>
    <!-- Epaisseur -->
    <circle cx="208mm" cy="126mm" r="40mm" fill="transparent" stroke="black" stroke-width="0.2mm"/>
    <circle cx="208mm" cy="126mm" r="35mm" fill="transparent" stroke="black" stroke-width="0.2mm"/>
    <!-- Epaisseur -->
    <circle cx="290mm" cy="126mm" r="40mm" fill="transparent" stroke="black" stroke-width="0.2mm"/>
    <circle cx="290mm" cy="126mm" r="35mm" fill="transparent" stroke="black" stroke-width="0.2mm"/>
    <!-- Pannier carte -->
    <rect x="274mm" y="114mm" width="56mm" height="24mm" fill="transparent" stroke="black" stroke-width="0.2mm"/>
    <rect x="300mm" y="110mm" width="25mm" height="32mm" fill="transparent" stroke="black" stroke-width="0.2mm"/>
    <!-- Epaisseur -->
    <circle cx="44mm" cy="208mm" r="40mm" fill="transparent" stroke="black" stroke-width="0.2mm"/>
    <circle cx="44mm" cy="208mm" r="35mm" fill="transparent" stroke="black" stroke-width="0.2mm"/>
    <!-- Couvercle -->
    <circle cx="126mm" cy="208mm" r="40mm" fill="transparent" stroke="black" stroke-width="0.2mm"/>
    <!-- Base -->
    <circle cx="208mm" cy="208mm" r="40mm" fill="transparent" stroke="black" stroke-width="0.2mm"/>
    <!-- Support carte -->
    <circle cx="290mm" cy="208mm" r="40mm" fill="transparent" stroke="black" stroke-width="0.2mm"/>
    <rect x="300mm" y="192mm" width="10mm" height="32mm" fill="transparent" stroke="black" stroke-width="0.2mm"/>
</svg>
